<?xml version="1.0" encoding="UTF-8" standalone="no"?>
<!-- Created with Inkscape (http://www.inkscape.org/) -->

<svg
   xmlns:dc="http://purl.org/dc/elements/1.1/"
   xmlns:cc="http://creativecommons.org/ns#"
   xmlns:rdf="http://www.w3.org/1999/02/22-rdf-syntax-ns#"
   xmlns:svg="http://www.w3.org/2000/svg"
   xmlns="http://www.w3.org/2000/svg"
   xmlns:sodipodi="http://sodipodi.sourceforge.net/DTD/sodipodi-0.dtd"
   xmlns:inkscape="http://www.inkscape.org/namespaces/inkscape"
   width="356.42856"
   height="357.42801"
   id="svg3687"
   version="1.1"
   inkscape:version="0.47 r22583"
   sodipodi:docname="global.svg">
  <defs
     id="defs3689">
    <inkscape:perspective
       sodipodi:type="inkscape:persp3d"
       inkscape:vp_x="0 : 526.18109 : 1"
       inkscape:vp_y="0 : 1000 : 0"
       inkscape:vp_z="744.09448 : 526.18109 : 1"
       inkscape:persp3d-origin="372.04724 : 350.78739 : 1"
       id="perspective3695" />
  </defs>
  <sodipodi:namedview
     id="base"
     pagecolor="#ffffff"
     bordercolor="#666666"
     borderopacity="1.0"
     inkscape:pageopacity="0.0"
     inkscape:pageshadow="2"
     inkscape:zoom="0.7"
     inkscape:cx="60.621764"
     inkscape:cy="101.07143"
     inkscape:document-units="px"
     inkscape:current-layer="layer1"
     showgrid="false"
     inkscape:window-width="1276"
     inkscape:window-height="756"
     inkscape:window-x="4"
     inkscape:window-y="0"
     inkscape:window-maximized="0" />
  <metadata
     id="metadata3692">
    <rdf:RDF>
      <cc:Work
         rdf:about="">
        <dc:format>image/svg+xml</dc:format>
        <dc:type
           rdf:resource="http://purl.org/dc/dcmitype/StillImage" />
        <dc:title></dc:title>
      </cc:Work>
    </rdf:RDF>
  </metadata>
  <g
     inkscape:label="Layer 1"
     inkscape:groupmode="layer"
     id="layer1"
     transform="translate(-127.50002,-276.00561)">
    <path
       sodipodi:type="arc"
       style="fill:none;stroke:#000000;stroke-width:25;stroke-linejoin:round;stroke-miterlimit:4;stroke-opacity:1;stroke-dasharray:none;stroke-dashoffset:0"
       id="path3697"
       sodipodi:cx="305.71429"
       sodipodi:cy="455.21933"
       sodipodi:rx="165.71428"
       sodipodi:ry="165.71428"
       d="m 471.42857,455.21933 c 0,91.52147 -74.19281,165.71428 -165.71428,165.71428 -91.52146,0 -165.71427,-74.19281 -165.71427,-165.71428 0,-91.52147 74.19281,-165.71428 165.71427,-165.71428 91.52147,0 165.71428,74.19281 165.71428,165.71428 z" />
    <path
       style="fill:none;stroke:#000000;stroke-width:20;stroke-linecap:butt;stroke-linejoin:miter;stroke-miterlimit:4;stroke-opacity:1;stroke-dasharray:none"
       d="m 188.57143,345.21933 c 18.57143,48.57142 38.57143,27.14285 54.28571,50 15.71429,22.85714 -8.57143,54.28571 -12.85714,85.71428 -4.28571,31.42857 50,61.42857 15.71429,55.71429 -34.28572,-5.71429 -47.14286,-32.85715 -60,-31.42857 -12.85715,1.42857 -20,37.14285 -20,37.14285"
       id="path4235" />
    <path
       style="fill:none;stroke:#000000;stroke-width:20;stroke-linecap:butt;stroke-linejoin:miter;stroke-miterlimit:4;stroke-opacity:1;stroke-dasharray:none"
       d="M 454.28571,379.50504 C 410,443.79075 357.14286,368.07647 321.42857,385.21933 c -35.71428,17.14285 8.57143,62.85714 0,92.85714 -8.57143,30 50,10 65.71429,24.28571 15.71428,14.28572 -44.28572,70 -22.85715,78.57143 21.42858,8.57143 68.57143,-15.71428 68.57143,-15.71428"
       id="path4237" />
  </g>
</svg>
